<svg xmlns="http://www.w3.org/2000/svg" width="32" height="32" fill="none" aria-hidden="true" focusable="false"><path fill="#FFC42D" d="M0 16C0 7.163 7.163 0 16 0s16 7.163 16 16-7.163 16-16 16S0 24.837 0 16Z"></path><path fill="#292C3E" d="M16.113 9.914c.92 0 1.667-.726 1.667-1.624 0-.897-.746-1.623-1.667-1.623-.92 0-1.666.727-1.666 1.624 0 .897.746 1.623 1.666 1.623Zm-2.163 8.85a35.73 35.73 0 0 0-2.76-1.63l-2.486-1.32-1.992 6.802c-.17.545.143 1.177.764 1.342.622.165 1.203-.17 1.372-.745l1.271-4.337 2.106 1.367v2.67c0 .596.5 1.083 1.11 1.083.613 0 1.112-.486 1.112-1.083v-3.248c0-.178-.046-.354-.132-.511a1.094 1.094 0 0 0-.365-.39Zm3.521 1.987c-.482 0-.9.3-1.053.74l-.86 2.508h11.108l-3.538-6.985c-.395-.761-1.496-.8-1.948-.068l-1.107 1.835-2.266-1.206-.833-4.104c-.301-1.343-1.166-2.48-2.42-3.09-.034-.017-.073-.021-.108-.038-.078-.038-.165-.038-.252-.09a4.608 4.608 0 0 0-1.667-.337H9.97c-.321 0-.627.138-.84.37L7.19 12.45a2.486 2.486 0 0 0-.078.11c-.309.444-.105 1.113.403 1.38l11.688 6.24-.341.57h-1.39Zm-7.125-7.174-.816-.436.977-1.088H11.7l-1.355 1.524Zm3.25 1.76 1.212-1.397.469 2.289-1.68-.892Z"></path></svg>