<svg xmlns="http://www.w3.org/2000/svg" width="40" height="40" fill="none" aria-hidden="true" focusable="false"><path fill="#FFC42D" d="M0 24C0 15.163 7.163 8 16 8s16 7.163 16 16-7.163 16-16 16S0 32.837 0 24Z"></path><path fill="#292C3E" fill-rule="evenodd" d="M16 34.667a2.1 2.1 0 0 1-.811-.16 2.389 2.389 0 0 1-.705-.452l-8.539-8.539a2.39 2.39 0 0 1-.452-.705 2.1 2.1 0 0 1-.16-.811c0-.284.054-.559.16-.825.106-.266.257-.496.452-.691l8.539-8.539c.213-.213.448-.368.705-.465.257-.098.527-.147.811-.147.284 0 .559.05.825.147.266.097.496.252.691.465l8.539 8.539c.213.195.368.425.465.691a2.376 2.376 0 0 1 0 1.636 1.993 1.993 0 0 1-.465.705l-8.539 8.539a2.034 2.034 0 0 1-.691.452c-.266.107-.541.16-.825.16ZM17.334 28a1.333 1.333 0 1 1-2.667 0 1.333 1.333 0 0 1 2.667 0ZM16 18.667c-.736 0-1.333.597-1.333 1.333v4a1.333 1.333 0 0 0 2.667 0v-4c0-.736-.598-1.333-1.334-1.333Z" clip-rule="evenodd"></path><path fill="#E10011" d="M38.2 9a7.2 7.2 0 1 1-14.4 0 7.2 7.2 0 0 1 14.4 0Z"></path><path fill="#fff" fill-rule="evenodd" d="M40 9a9 9 0 1 1-18 0 9 9 0 0 1 18 0Zm-9 7.2a7.2 7.2 0 1 0 0-14.4 7.2 7.2 0 0 0 0 14.4Z" clip-rule="evenodd"></path><path fill="#fff" d="M26.8 7.8h8.4v2.4h-8.4z"></path></svg>