<svg xmlns="http://www.w3.org/2000/svg" width="32" height="32" fill="none" aria-hidden="true" focusable="false"><path fill="#FFC42D" d="M0 16C0 7.163 7.163 0 16 0s16 7.163 16 16-7.163 16-16 16S0 24.837 0 16Z"></path><path fill="#292C3E" d="M18.91 14.833h5.226l-3.23-3.666H18.91v3.666Zm2.424 7.792c.378 0 .717-.12 1.008-.394.29-.275.446-.596.446-.981 0-.358-.155-.678-.446-.953-.29-.275-.63-.422-1.008-.422-.408 0-.747.147-1.038.422a1.26 1.26 0 0 0-.417.953c0 .385.126.706.417.98.29.276.63.395 1.038.395Zm-11.152 0c.427 0 .776-.12 1.047-.394.272-.275.408-.596.408-.981 0-.358-.136-.678-.408-.953a1.415 1.415 0 0 0-1.047-.422c-.427 0-.776.147-1.047.422a1.322 1.322 0 0 0-.408.953c0 .385.136.706.408.98.271.276.62.395 1.047.395ZM21.547 9.333a.6.6 0 0 1 .45.204l4.52 5.126a.6.6 0 0 1 .15.397v5.59a.6.6 0 0 1-.6.6h-1.824c0 .76-.301 1.402-.883 1.953-.572.54-1.25.797-2.026.797-.805 0-1.484-.257-2.056-.797-.582-.55-.854-1.192-.854-1.953h-5.333c0 .76-.29 1.402-.863 1.953-.591.54-1.26.797-2.046.797a2.906 2.906 0 0 1-2.046-.797c-.572-.55-.863-1.192-.863-1.953h-1.34a.6.6 0 0 1-.6-.6v-2.467a.6.6 0 0 1 .6-.6h7.342l-6.002-4.482v2.049a.6.6 0 0 1-.6.6h-.74a.6.6 0 0 1-.6-.6v-4.3a.6.6 0 0 1 .6-.6h.37l10.667 5.555V9.933a.6.6 0 0 1 .6-.6h3.977Z"></path></svg>